<svg width="8" height="8" viewBox="0 0 8 8" fill="none" xmlns="http://www.w3.org/2000/svg">
<path d="M3.35483 4.19172L3.35483 6.4988C3.35483 6.70276 3.27329 6.89839 3.12807 7.04257C2.98286 7.18681 2.78598 7.26781 2.58065 7.26781L0.774184 7.26781C0.568852 7.26781 0.371908 7.18681 0.226761 7.04257C0.0815511 6.89838 4.97316e-08 6.70276 6.76822e-08 6.4988L3.60974e-07 3.16635C4.00579e-07 2.71634 0.119229 2.27432 0.345748 1.88463C0.572201 1.49495 0.898026 1.1713 1.29033 0.94636C1.68264 0.721358 2.12764 0.602922 2.58066 0.602922C2.71754 0.602922 2.84882 0.656923 2.94561 0.753062C3.0424 0.849203 3.09676 0.979621 3.09676 1.11557C3.09388 1.25183 3.0376 1.38159 2.93997 1.47731C2.84235 1.57303 2.71094 1.62721 2.57376 1.62828C2.1643 1.63007 1.77222 1.7929 1.48331 2.08115C1.19445 2.3694 1.03226 2.75962 1.03226 3.16635L1.03226 3.42265L2.58066 3.42265C2.78599 3.42265 2.98288 3.50371 3.12808 3.64789C3.27329 3.79213 3.35485 3.98775 3.35485 4.19172L3.35483 4.19172ZM7.22583 3.42272L5.67743 3.42272L5.67743 3.16636C5.67743 2.75963 5.83963 2.36941 6.12854 2.08116C6.41741 1.79292 6.80947 1.63009 7.21893 1.62829C7.35616 1.62722 7.48751 1.57304 7.58514 1.47732C7.68283 1.38159 7.73906 1.25184 7.74199 1.11558C7.74199 0.979628 7.68757 0.849217 7.59078 0.753073C7.49399 0.656932 7.3627 0.602933 7.22583 0.602933C6.77286 0.602933 6.32781 0.721364 5.9355 0.946371C5.54319 1.17131 5.21743 1.49496 4.99092 1.88465C4.7644 2.27433 4.64517 2.71635 4.64517 3.16636L4.64517 6.49881C4.64517 6.70277 4.72671 6.8984 4.87193 7.04258C5.01714 7.18682 5.21402 7.26782 5.41935 7.26782L7.22582 7.26782C7.43115 7.26782 7.62809 7.18682 7.77324 7.04258C7.91845 6.8984 8 6.70277 8 6.49881L8 4.19173C8 3.98777 7.91845 3.79214 7.77324 3.6479C7.62809 3.50372 7.43115 3.42265 7.22582 3.42265L7.22583 3.42272Z" fill="black"/>
</svg>
