<svg width="8" height="7" viewBox="0 0 8 7" fill="none" xmlns="http://www.w3.org/2000/svg">
<path d="M4.64517 3.29455V0.987468C4.64517 0.783508 4.72671 0.587879 4.87193 0.443701C5.01714 0.299461 5.21402 0.218456 5.41935 0.218456L7.22582 0.218456C7.43115 0.218456 7.62809 0.299457 7.77324 0.443701C7.91845 0.587882 8 0.783508 8 0.987468V4.31992C8 4.76992 7.88077 5.21195 7.65425 5.60163C7.4278 5.99132 7.10197 6.31497 6.70967 6.53991C6.31736 6.76491 5.87237 6.88334 5.41934 6.88334C5.28247 6.88334 5.15118 6.82934 5.05439 6.7332C4.9576 6.63706 4.90324 6.50665 4.90324 6.37069C4.90612 6.23444 4.9624 6.10468 5.06003 6.00896C5.15765 5.91324 5.28906 5.85906 5.42624 5.85799C5.8357 5.8562 6.22778 5.69336 6.51669 5.40511C6.80555 5.11687 6.96774 4.72665 6.96774 4.31992V4.06362L5.41934 4.06362C5.21401 4.06362 5.01712 3.98256 4.87192 3.83837C4.72671 3.69413 4.64515 3.49852 4.64515 3.29455L4.64517 3.29455ZM0.774172 4.06355H2.32257V4.3199C2.32257 4.72663 2.16037 5.11686 1.87146 5.4051C1.5826 5.69335 1.19053 5.85617 0.781069 5.85798C0.643839 5.85905 0.512495 5.91323 0.41486 6.00895C0.317173 6.10467 0.260942 6.23442 0.258008 6.37068C0.258008 6.50664 0.312432 6.63705 0.40922 6.73319C0.506007 6.82933 0.637301 6.88333 0.774168 6.88333C1.22714 6.88333 1.67219 6.7649 2.0645 6.5399C2.45681 6.31496 2.78257 5.99131 3.00908 5.60162C3.2356 5.21194 3.35483 4.76991 3.35483 4.31991L3.35483 0.987457C3.35483 0.783497 3.27329 0.587868 3.12807 0.44369C2.98286 0.299451 2.78598 0.218445 2.58065 0.218445L0.774184 0.218445C0.568852 0.218445 0.371908 0.299446 0.22676 0.44369C0.0815505 0.587871 0 0.783497 0 0.987457L0 3.29454C0 3.4985 0.0815459 3.69413 0.22676 3.83837C0.371911 3.98255 0.568852 4.06361 0.774184 4.06361L0.774172 4.06355Z" fill="black"/>
</svg>
