<svg width="108" height="46" viewBox="0 0 108 46" fill="none" xmlns="http://www.w3.org/2000/svg">
<g clip-path="url(#clip0_183_68)">
<path d="M23.1208 0.822573C25.9844 0.82 28.8206 1.3817 31.4672 2.4756C34.1137 3.56951 36.5187 5.17416 38.5448 7.19788C40.571 9.22159 42.1785 11.6247 43.2756 14.2699C44.3727 16.9151 44.9378 19.7506 44.9386 22.6143C44.9386 28.3944 42.6429 33.9379 38.5564 38.0256C34.4698 42.1134 28.927 44.4108 23.1469 44.4125C20.2846 44.4125 17.4504 43.8486 14.8061 42.7531C12.1618 41.6575 9.75917 40.0518 7.73554 38.0276C5.71191 36.0033 4.10687 33.6003 3.01212 30.9556C1.91736 28.311 1.35434 25.4765 1.3552 22.6143C1.3552 16.8347 3.65112 11.2919 7.73785 7.20521C11.8246 3.11847 17.3674 0.822573 23.1469 0.822573H23.1208ZM23.1469 -8.36449e-06C20.1749 -0.00946795 17.2307 0.571395 14.485 1.70889C11.7393 2.84638 9.24694 4.51785 7.1524 6.62628C5.04591 8.72092 3.37565 11.2125 2.23827 13.9568C1.10088 16.701 0.518931 19.6436 0.526083 22.6143C0.518067 25.586 1.09962 28.5298 2.23703 31.2753C3.37444 34.0208 5.04513 36.5134 7.1524 38.6088C9.24694 40.7172 11.7393 42.3887 14.485 43.5262C17.2307 44.6637 20.1749 45.2445 23.1469 45.2351C26.1186 45.2431 29.0624 44.6616 31.8079 43.5242C34.5534 42.3867 37.046 40.716 39.1414 38.6088C41.2478 36.513 42.9175 34.0202 44.0538 31.2747C45.1901 28.5293 45.7704 25.5856 45.7612 22.6143C45.7696 19.644 45.1888 16.7016 44.0525 13.9573C42.9162 11.213 41.247 8.72125 39.1414 6.62628C37.046 4.51902 34.5534 2.84833 31.8079 1.71092C29.0624 0.57351 26.1186 -0.00802378 23.1469 -8.36449e-06Z" fill="#054F77"/>
<path d="M24.8312 20.7994H37.8227V18.978C37.8227 17.7638 36.517 17.8552 36.517 17.8552H35.6226V14.8913H37.8292V13.2853C37.8299 13.1041 37.7928 12.9247 37.7204 12.7586C37.6479 12.5925 37.5417 12.4433 37.4084 12.3205C37.2752 12.1977 37.1178 12.1039 36.9464 12.0453C36.7749 11.9866 36.5931 11.9642 36.4125 11.9796H32.1887V10.674H29.2705V11.9796H23.63V13.9381C23.63 13.9381 23.5909 14.9109 24.877 14.9109H25.8366V17.8552H23.63V19.7288C23.6319 19.8802 23.6654 20.0295 23.7282 20.1672C23.791 20.3049 23.8818 20.428 23.9948 20.5288C24.1078 20.6295 24.2405 20.7056 24.3845 20.7522C24.5286 20.7988 24.6806 20.8149 24.8312 20.7994ZM28.7482 14.9239H32.6653V17.8682H28.7482V14.9239Z" fill="#054F77"/>
<path d="M34.8653 36.598V32.5635H37.8227V21.7852H23.5974V31.075C23.5858 31.2669 23.6137 31.4592 23.6794 31.6398C23.7451 31.8205 23.8472 31.9857 23.9794 32.1252C24.1117 32.2648 24.2711 32.3757 24.448 32.4511C24.6248 32.5265 24.8152 32.5647 25.0075 32.5635H26.5352V36.6046H23.6627C23.5496 37.727 23.0376 38.7717 22.2198 39.5488H26.6592C27.0356 39.57 27.4123 39.511 27.7642 39.3757C28.1161 39.2404 28.4353 39.032 28.7006 38.7642C28.966 38.4963 29.1714 38.1752 29.3034 37.8221C29.4354 37.4689 29.491 37.0918 29.4664 36.7155V32.57H31.9145V39.5488H34.7348C36.5431 39.5488 38.6518 36.6046 38.6518 36.6046L34.8653 36.598ZM30.6807 30.5723C29.8012 30.5725 28.956 30.2308 28.3239 29.6192H26.5547V24.7229H28.3369C28.9675 24.109 29.8137 23.7668 30.6937 23.7698C31.5738 23.7668 32.4199 24.109 33.0505 24.7229H34.8914V29.6192H33.0505C32.4131 30.2291 31.5629 30.5664 30.6807 30.5593V30.5723Z" fill="#054F77"/>
<path d="M30.6349 24.6185C30.2975 24.6185 29.9633 24.6851 29.6516 24.8145C29.3399 24.9438 29.0568 25.1334 28.8184 25.3723C28.5801 25.6112 28.3913 25.8948 28.2628 26.2069C28.1342 26.5189 28.0685 26.8532 28.0693 27.1907C28.0693 27.8718 28.3394 28.525 28.8204 29.0072C29.3013 29.4894 29.9539 29.7612 30.6349 29.7629C31.3171 29.7629 31.9714 29.4919 32.4538 29.0095C32.9361 28.5272 33.2072 27.8729 33.2072 27.1907C33.208 26.8527 33.1421 26.5178 33.0131 26.2054C32.8842 25.8929 32.6947 25.609 32.4557 25.37C32.2167 25.131 31.9328 24.9415 31.6203 24.8126C31.3079 24.6836 30.973 24.6177 30.6349 24.6185ZM30.6349 28.9469C30.1692 28.9469 29.7225 28.7618 29.3932 28.4325C29.0638 28.1032 28.8789 27.6565 28.8789 27.1907C28.8789 26.725 29.0638 26.2783 29.3932 25.949C29.7225 25.6196 30.1692 25.4346 30.6349 25.4346C30.8661 25.4337 31.0952 25.4785 31.309 25.5664C31.5228 25.6543 31.7172 25.7835 31.8809 25.9466C32.0447 26.1098 32.1746 26.3037 32.2633 26.5172C32.352 26.7307 32.3977 26.9596 32.3977 27.1907C32.3977 27.4219 32.352 27.6508 32.2633 27.8643C32.1746 28.0778 32.0447 28.2717 31.8809 28.4348C31.7172 28.598 31.5228 28.7272 31.309 28.8151C31.0952 28.9029 30.8661 28.9477 30.6349 28.9469Z" fill="#054F77"/>
<path d="M22.3047 37.7992C22.5038 37.425 22.6343 37.0182 22.69 36.598H18.5314V26.6814H22.6182V24.8992C22.6382 24.7389 22.6208 24.5762 22.5673 24.4238C22.5139 24.2714 22.4257 24.1335 22.3099 24.0209C22.1942 23.9083 22.0539 23.824 21.9001 23.7748C21.7462 23.7256 21.5831 23.7127 21.4234 23.7371H18.5314V20.7994H22.69V17.7376C22.6529 17.0477 22.381 16.3912 21.9196 15.877L17.9112 11.8686C17.7068 11.6644 17.4297 11.5498 17.1409 11.5498C16.852 11.5498 16.5749 11.6644 16.3705 11.8686L12.349 15.89C11.8875 16.4017 11.6157 17.0561 11.5787 17.7441V19.7026C11.5787 20.2967 11.5787 20.7928 11.5787 20.7994C11.5787 20.8059 11.9312 20.4599 12.3555 20.0356L16.3639 16.0271C16.5684 15.823 16.8455 15.7084 17.1343 15.7084C17.4232 15.7084 17.7002 15.823 17.9046 16.0271L19.7391 17.8616H16.475C16.1691 17.8712 15.8682 17.9421 15.5901 18.0699C15.3121 18.1977 15.0624 18.38 14.8559 18.6058L12.3229 21.1388H15.5871V23.7502H11.5003V25.5912C11.4839 25.7436 11.5024 25.8977 11.5546 26.0417C11.6068 26.1858 11.6913 26.3161 11.8015 26.4225C11.9117 26.529 12.0448 26.6088 12.1906 26.656C12.3364 26.7031 12.4911 26.7163 12.6428 26.6945H15.5871V36.6111H11.5003C11.5003 36.6111 12.4404 39.5554 14.1704 39.5554H19.8697C20.0299 39.5549 20.1897 39.5374 20.3462 39.5032C21.0549 39.2471 21.6648 38.7743 22.0893 38.1518L22.1285 38.093L22.246 37.9102C22.2688 37.875 22.2885 37.8379 22.3047 37.7992Z" fill="#054F77"/>
<path d="M20.4964 32.5701C21.5817 32.5701 22.4615 31.6903 22.4615 30.6051C22.4615 29.5198 21.5817 28.64 20.4964 28.64C19.4111 28.64 18.5314 29.5198 18.5314 30.6051C18.5314 31.6903 19.4111 32.5701 20.4964 32.5701Z" fill="#054F77"/>
<path d="M13.6742 33.4253C14.1348 32.9106 14.4065 32.2544 14.4446 31.5647V27.6477L13.6677 28.418L12.2771 29.8151C11.8157 30.3293 11.5439 30.9858 11.5068 31.6757V35.5927L12.2837 34.8224L13.6742 33.4253Z" fill="#054F77"/>
<path d="M61.3575 22.0724H64.4585V29.6714H61.3575V22.0724Z" fill="#054F77"/>
<path d="M66.4366 22.0724H71.6593C74.2706 22.0724 75.2042 23.0059 75.2042 24.0309C75.2042 25.0559 74.4338 25.6826 72.991 25.885C74.9495 26.0416 75.0801 26.7598 75.1127 27.7782C75.1715 29.2797 75.2629 29.4299 75.7068 29.5343V29.6322H72.3578C72.1162 29.3776 72.0248 28.9468 72.0248 28.085C72.0248 26.7793 71.7115 26.4921 70.7192 26.4921H69.5376V29.6322H66.4301L66.4366 22.0724ZM69.544 25.2713H70.5038C71.7572 25.2713 72.0901 24.7294 72.0901 24.2855C72.0901 23.711 71.718 23.3258 70.4841 23.3258H69.544V25.2713Z" fill="#054F77"/>
<path d="M77.0387 22.0724H82.2614C84.8727 22.0724 85.8128 23.0059 85.8128 24.0309C85.8128 25.0559 85.0359 25.6826 83.5931 25.885C85.5516 26.0416 85.6822 26.7598 85.7148 27.7782C85.7736 29.2797 85.865 29.4299 86.3089 29.5343V29.6322H82.9664C82.7249 29.3776 82.6335 28.9468 82.6335 28.085C82.6335 26.7793 82.3201 26.4921 81.3278 26.4921H80.1462V29.6322H77.0387V22.0724ZM80.1462 25.2713H81.1059C82.3593 25.2713 82.6922 24.7294 82.6922 24.2855C82.6922 23.711 82.3266 23.3258 81.0863 23.3258H80.1462V25.2713Z" fill="#054F77"/>
<path d="M91.9821 29.815C87.9019 29.815 87.3469 28.2874 87.3469 25.898C87.3469 23.5086 87.9019 21.9484 91.9821 21.9484C96.3822 21.9484 96.6238 23.7894 96.6238 25.898C96.6238 28.0067 96.3822 29.815 91.9821 29.815ZM91.9821 28.6269C93.2356 28.6269 93.4183 27.9741 93.4183 25.8719C93.4183 23.7698 93.2356 23.1169 91.9821 23.1169C90.7287 23.1169 90.5785 23.7698 90.5785 25.8719C90.5785 27.9741 90.7482 28.6008 91.9429 28.6008L91.9821 28.6269Z" fill="#054F77"/>
<path d="M98.2493 22.0724H103.472C106.083 22.0724 107.023 23.0059 107.023 24.0309C107.023 25.0559 106.246 25.6826 104.804 25.885C106.762 26.0416 106.893 26.7598 106.932 27.7782C106.984 29.2797 107.076 29.4299 107.52 29.5343V29.6322H104.177C103.935 29.3776 103.844 28.9468 103.844 28.085C103.844 26.7793 103.531 26.4921 102.538 26.4921H101.357V29.6322H98.2558L98.2493 22.0724ZM101.35 25.2713H102.31C103.563 25.2713 103.896 24.7294 103.896 24.2855C103.896 23.711 103.531 23.3258 102.29 23.3258H101.35V25.2713Z" fill="#054F77"/>
<path d="M49.9851 30.8922L49.2213 25.9502H49.1821V30.8922H46.4141V22.0724H50.9839L52.2243 30.9053L49.9851 30.8922ZM55.7953 30.8922V25.9502H55.7626L55.038 30.8922H52.9881L54.1894 22.0593H58.6809V30.8922H55.7953Z" fill="#054F77"/>
<path d="M61.1943 32.0739H68.8194V33.5232H64.2953V35.0443H68.5452V36.487H64.2953V38.2236H69.0218V39.699H61.1877L61.1943 32.0739Z" fill="#054F77"/>
<path d="M70.3993 32.0739H74.9691C78.0375 32.0739 79.3431 32.9878 79.3431 35.6253C79.3431 38.3803 78.736 39.6729 74.6558 39.6729H70.3993V32.0739ZM73.5068 38.3541H74.3359C75.7787 38.3541 76.2944 38.0212 76.2944 35.7428C76.2944 33.8953 76.0398 33.3926 74.3946 33.3926H73.5264L73.5068 38.3541Z" fill="#054F77"/>
<path d="M81.0862 32.0739H84.1871V39.699H81.0862V32.0739Z" fill="#054F77"/>
<path d="M88.6069 32.0739H92.4848L95.7489 39.6729H92.537L92.0605 38.2236H88.9007L88.4372 39.6729H85.2252L88.6069 32.0739ZM90.4871 33.4579L89.3969 36.8396H91.6492L90.4871 33.4579Z" fill="#054F77"/>
<path d="M46.4141 30.8922H49.1821V39.699H46.4141V30.8922ZM51.343 39.6663L49.9851 30.8922H52.1982L52.5833 33.6211H52.6225L52.9946 30.8922H55.038L53.7323 39.6663H51.343ZM55.7953 30.8922H58.6809V39.699H55.7953V30.8922Z" fill="#054F77"/>
</g>
<defs>
<clipPath id="clip0_183_68">
<rect width="107" height="45.2351" fill="white" transform="translate(0.5)"/>
</clipPath>
</defs>
</svg>
