<svg width="24" height="24" viewBox="0 0 24 24" fill="none" xmlns="http://www.w3.org/2000/svg">
<path d="M11.9999 16.0156C11.8144 16.0156 11.6483 15.9448 11.5019 15.8032L5.83291 10.0024C5.76943 9.93896 5.72061 9.86816 5.68643 9.79004C5.65225 9.70703 5.63516 9.61914 5.63516 9.52637C5.63516 9.39941 5.66445 9.28467 5.72305 9.18213C5.78164 9.07959 5.85977 8.99902 5.95742 8.94043C6.05996 8.88184 6.17471 8.85254 6.30166 8.85254C6.48721 8.85254 6.6459 8.91602 6.77773 9.04297L12.3881 14.7778H11.6044L17.2147 9.04297C17.3515 8.91602 17.5102 8.85254 17.6908 8.85254C17.8178 8.85254 17.9301 8.88184 18.0277 8.94043C18.1303 8.99902 18.2108 9.07959 18.2694 9.18213C18.328 9.28467 18.3573 9.39941 18.3573 9.52637C18.3573 9.70703 18.2914 9.86328 18.1596 9.99512L12.4906 15.8032C12.4271 15.8716 12.3515 15.9253 12.2636 15.9644C12.1806 15.9985 12.0927 16.0156 11.9999 16.0156Z" fill="#054F77"/>
</svg>
