<svg width="32" height="32" viewBox="0 0 32 32" fill="none" xmlns="http://www.w3.org/2000/svg">
<circle cx="16" cy="16" r="15.5" fill="black" stroke="white"/>
<path d="M15.2746 23.1751H16.6496V21.8751C17.6663 21.7584 18.4579 21.4459 19.0246 20.9376C19.5913 20.4293 19.8746 19.7501 19.8746 18.9001C19.8746 18.0501 19.6329 17.3584 19.1496 16.8251C18.6663 16.2918 17.8496 15.7834 16.6996 15.3001C15.7329 14.9001 15.0329 14.5418 14.5996 14.2251C14.1663 13.9084 13.9496 13.4834 13.9496 12.9501C13.9496 12.4334 14.1371 12.0251 14.5121 11.7251C14.8871 11.4251 15.3996 11.2751 16.0496 11.2751C16.5496 11.2751 16.9829 11.3918 17.3496 11.6251C17.7163 11.8584 18.0246 12.2084 18.2746 12.6751L19.4746 12.1001C19.1913 11.5168 18.8163 11.0584 18.3496 10.7251C17.8829 10.3918 17.3329 10.1918 16.6996 10.1251V8.8501H15.3246V10.1251C14.4746 10.2418 13.8038 10.5543 13.3121 11.0626C12.8204 11.5709 12.5746 12.2001 12.5746 12.9501C12.5746 13.7668 12.8246 14.4168 13.3246 14.9001C13.8246 15.3834 14.5746 15.8334 15.5746 16.2501C16.6913 16.7168 17.4579 17.1376 17.8746 17.5126C18.2913 17.8876 18.4996 18.3501 18.4996 18.9001C18.4996 19.4334 18.2788 19.8626 17.8371 20.1876C17.3954 20.5126 16.8413 20.6751 16.1746 20.6751C15.5246 20.6751 14.9454 20.4918 14.4371 20.1251C13.9288 19.7584 13.5746 19.2584 13.3746 18.6251L12.0996 19.0501C12.4496 19.8168 12.8788 20.4209 13.3871 20.8626C13.8954 21.3043 14.5246 21.6251 15.2746 21.8251V23.1751Z" fill="white"/>
<rect x="0.5" y="0.5" width="31" height="31" rx="15.5" stroke="white"/>
</svg>
