<svg width="40" height="40" viewBox="0 0 40 40" fill="none" xmlns="http://www.w3.org/2000/svg">
<circle cx="20" cy="20" r="20" fill="#054F77"/>
<path d="M21.2851 23.3522C20.2798 23.3543 19.3013 23.0273 18.4976 22.4209C18.3784 22.3322 18.2991 22.1998 18.2769 22.0526C18.2546 21.9053 18.2913 21.7552 18.3789 21.635C18.393 21.6148 19.0305 20.9704 19.0305 20.9704C19.1188 20.8755 19.2377 20.8149 19.3661 20.7994C19.4945 20.7839 19.6242 20.8144 19.7324 20.8855C20.2483 21.2555 20.8778 21.43 21.5095 21.3783C22.1412 21.3265 22.7343 21.0517 23.1836 20.6027L26.2004 17.5724C27.1134 16.6552 27.3387 15.1946 26.6167 14.1199C25.7961 12.8795 24.0021 12.4148 22.5802 13.6694C22.4274 13.8047 20.7923 15.4068 20.7923 15.4068C20.7419 15.4575 20.682 15.4977 20.6161 15.5251C20.5502 15.5526 20.4795 15.5667 20.4082 15.5667C20.3368 15.5667 20.2662 15.5526 20.2003 15.5251C20.1344 15.4977 20.0745 15.4575 20.024 15.4068L19.4207 14.8007C19.3185 14.6977 19.2611 14.5582 19.2611 14.4128C19.2611 14.2674 19.3185 14.1279 19.4207 14.0249L20.9773 12.4633C22.6768 10.7502 25.4562 10.4674 27.3125 12.0088C28.2597 12.791 28.8589 13.919 28.9785 15.1449C29.098 16.3708 28.7281 17.5941 27.9501 18.5461C27.8535 18.6633 24.5472 21.9946 24.5472 21.9946C23.6813 22.8626 22.5084 23.3508 21.2851 23.3522Z" fill="white"/>
<path d="M18.7211 16.6432C19.7291 16.6397 20.7104 16.9682 21.5146 17.5786C21.6336 17.6669 21.7129 17.7989 21.7352 17.9459C21.7574 18.0928 21.7208 18.2426 21.6333 18.3624C21.6192 18.3846 20.9817 19.0291 20.9817 19.0291C20.8934 19.1226 20.7753 19.1823 20.6479 19.1978C20.5205 19.2133 20.3917 19.1836 20.2838 19.1139C19.7681 18.7436 19.1385 18.5688 18.5066 18.6206C17.8748 18.6724 17.2817 18.9474 16.8326 19.3968L13.8159 22.4271C12.8927 23.3422 12.6655 24.8028 13.3895 25.8796C14.208 27.118 16.004 27.5846 17.4259 26.3301C17.5788 26.1947 19.2138 24.5907 19.2138 24.5907C19.2643 24.54 19.3242 24.4998 19.3901 24.4723C19.456 24.4449 19.5266 24.4308 19.598 24.4308C19.6693 24.4308 19.74 24.4449 19.8059 24.4723C19.8718 24.4998 19.9317 24.54 19.9821 24.5907L20.5855 25.1968C20.6868 25.3006 20.7436 25.4402 20.7436 25.5856C20.7436 25.7311 20.6868 25.8707 20.5855 25.9745L19.0288 27.5361C17.3274 29.2493 14.5479 29.5321 12.6916 27.9907C11.7435 27.2093 11.1431 26.0817 11.0225 24.8558C10.9018 23.6299 11.2707 22.4061 12.048 21.4533C12.1446 21.3341 15.4509 18.0048 15.4509 18.0048C15.8798 17.5726 16.3895 17.2298 16.9507 16.9961C17.5119 16.7625 18.1136 16.6425 18.7211 16.6432Z" fill="white"/>
</svg>
