<svg width="91" height="38" viewBox="0 0 91 38" fill="none" xmlns="http://www.w3.org/2000/svg">
<path d="M19.1779 0.692671C29.3829 0.692671 37.655 8.88846 37.655 18.9992C37.655 29.1099 29.3829 37.3057 19.1779 37.3057C8.97294 37.3057 0.699126 29.1099 0.699126 18.9992C0.699126 8.88846 8.97294 0.692671 19.1779 0.692671ZM19.1779 0C14.0559 0 9.2402 1.97629 5.61746 5.56558C1.99471 9.15326 0 13.9245 0 18.9992C0 24.0739 1.99471 28.8451 5.61746 32.4344C9.2402 36.0237 14.0542 38 19.1779 38C24.3016 38 29.1156 36.0237 32.7383 32.4344C36.3611 28.8451 38.3558 24.0755 38.3558 18.9992C38.3558 13.9228 36.3611 9.15326 32.7383 5.56397C29.1156 1.97629 24.2999 0 19.1779 0Z" fill="white"/>
<path d="M20.6271 17.4718H31.642C31.642 17.0132 31.642 16.4417 31.642 15.9444C31.642 14.9207 30.5306 14.9998 30.5306 14.9998H29.7712V12.5278H31.642V11.1748C31.642 11.1748 31.6991 10.0558 30.441 10.0558H26.8606V8.9353H24.3656V10.0558H19.5841V11.7108C19.5841 11.7108 19.5467 12.5278 20.6402 12.5278H21.455V14.9998H19.5841V16.5757C19.5841 16.5757 19.5662 17.4718 20.6271 17.4718ZM23.95 12.5278H27.2762V14.9998H23.95V12.5278Z" fill="white"/>
<path d="M29.1373 30.7455V27.3532H31.6355L31.6404 27.3483V18.2952H19.5842V26.1018C19.5842 26.1018 19.5483 27.3499 20.7771 27.3499C22.0058 27.3499 22.071 27.3499 22.071 27.3499V30.7455H19.6396C19.5402 31.7142 19.0887 32.5797 18.4141 33.2175H19.5907C19.5907 33.2175 20.5848 33.2175 22.1851 33.2175C24.6752 33.2175 24.5677 30.8407 24.5677 30.8407V27.3548H26.6439V33.2191H29.0313C30.5681 33.2191 32.3412 30.7471 32.3412 30.7471H29.1389L29.1373 30.7455ZM25.5879 25.682C24.8105 25.682 24.1065 25.3769 23.5883 24.8812H22.089L22.0792 20.7671H23.5899C24.1081 20.2715 24.8121 19.9663 25.5895 19.9663C26.3668 19.9663 27.0708 20.2715 27.5891 20.7671H29.147V24.8812H27.5891C27.0708 25.3769 26.3668 25.682 25.5895 25.682H25.5879Z" fill="white"/>
<path d="M25.5516 20.6799C24.3473 20.6799 23.3711 21.6471 23.3711 22.8403C23.3711 24.0335 24.3473 25.0007 25.5516 25.0007C26.7559 25.0007 27.7321 24.0335 27.7321 22.8403C27.7321 21.6471 26.7559 20.6799 25.5516 20.6799ZM25.5516 24.3177C24.7286 24.3177 24.0604 23.6557 24.0604 22.8403C24.0604 22.0249 24.7286 21.3629 25.5516 21.3629C26.3746 21.3629 27.0427 22.0249 27.0427 22.8403C27.0427 23.6557 26.3746 24.3177 25.5516 24.3177Z" fill="white"/>
<path d="M18.4893 31.7516C18.6539 31.4448 18.7647 31.1041 18.8152 30.7457H15.2886V22.4158H18.7533V20.9175C18.7533 19.8034 17.7396 19.9455 17.7396 19.9455H15.2886V17.4735H18.8136V17.4703C18.8136 17.4703 18.8136 17.0585 18.8136 16.5548V14.895C18.8136 14.3912 18.5202 13.6888 18.1601 13.332L14.7606 9.96392C14.4021 9.60871 13.8138 9.60871 13.4536 9.96392L10.0444 13.3417C9.68583 13.6969 9.39086 14.4009 9.39086 14.9046V16.5451C9.39086 17.0489 9.39412 17.4638 9.39738 17.467C9.40064 17.4703 9.69724 17.1813 10.0574 16.826L13.4536 13.4596C13.8121 13.1027 14.4004 13.1027 14.7606 13.4596L16.3169 15.0015C16.3169 15.0015 14.4868 15.0015 13.5416 15.0015C12.7023 15.0015 12.1727 15.6248 12.1727 15.6248L10.0248 17.7528H12.7936V19.9455H9.33056V21.4891C9.33056 21.4891 9.23115 22.4175 10.3018 22.4175H12.7936V30.7473H9.33056C9.33056 30.7473 10.1291 33.2192 11.5974 33.2192H11.7327C11.9804 33.2192 12.0684 33.2192 12.0651 33.2192H16.4261C16.5679 33.2192 16.7032 33.2031 16.8319 33.174C17.4365 32.9577 17.9547 32.5589 18.3116 32.0422C18.323 32.026 18.3345 32.0099 18.3442 31.9921C18.3785 31.9405 18.4094 31.8872 18.4404 31.8339C18.4567 31.8065 18.473 31.779 18.4876 31.7516H18.4893Z" fill="white"/>
<path d="M15.7767 24.5405C15.1265 25.1848 15.1265 26.2294 15.7767 26.8737C16.427 27.5179 17.4814 27.5179 18.1316 26.8737C18.7818 26.2294 18.7818 25.1848 18.1316 24.5405C17.4814 23.8963 16.427 23.8963 15.7767 24.5405Z" fill="white"/>
<path d="M11.1716 28.0766C11.5301 27.7213 11.8251 27.0174 11.8251 26.5136V24.153C11.8251 23.6493 11.8251 23.2375 11.8218 23.2375C11.8186 23.2375 11.5252 23.5282 11.1667 23.885L9.98357 25.0572C9.62505 25.4124 9.33008 26.1164 9.33008 26.6202V28.9808C9.33008 29.4845 9.33008 29.8962 9.33334 29.8962C9.3366 29.8962 9.62994 29.6056 9.99009 29.2488L11.1716 28.0782V28.0766Z" fill="white"/>
<path d="M51.457 26.9431H57.9252V28.1589H54.0889V29.4377H57.6905V30.6535H54.0889V32.1099H58.0979V33.3257H51.457V26.9431Z" fill="white"/>
<path d="M59.2868 26.9431H63.1866C65.7859 26.9431 66.8973 27.7117 66.8973 29.9285C66.8973 32.1454 66.3807 33.3257 62.9193 33.3257H59.2852V26.9431H59.2868ZM61.9187 32.2181H62.6227C63.845 32.2181 64.267 31.9403 64.267 30.0286C64.267 28.4738 64.047 28.0524 62.6537 28.0524H61.9171V32.2181H61.9187Z" fill="white"/>
<path d="M68.3242 26.9431H70.9545V33.3257H68.3242V26.9431Z" fill="white"/>
<path d="M74.6999 26.9431H77.9885L80.7753 33.3257H78.0505L77.6431 32.1099H74.9655L74.5744 33.3257H71.8496L74.6999 26.9431ZM76.297 28.1056H76.266L75.342 30.9474H77.2536L76.2986 28.1056H76.297Z" fill="white"/>
<path d="M51.5977 18.5405H54.2279V24.9231H51.5977V18.5405Z" fill="white"/>
<path d="M55.9043 18.5407H60.3207C62.5598 18.5407 63.3274 19.327 63.3274 20.2037C63.3274 21.1338 62.669 21.5891 61.4484 21.7586V21.7764C63.1237 21.9104 63.2182 22.5094 63.2492 23.3668C63.2965 24.6278 63.3747 24.7521 63.7511 24.8425V24.9233H60.9171C60.7134 24.7085 60.6352 24.3517 60.6352 23.6267C60.6352 22.5175 60.3696 22.285 59.5384 22.285H58.5362V24.9216H55.9059V18.5391L55.9043 18.5407ZM58.5346 21.2306H59.3494C60.4136 21.2306 60.6955 20.7753 60.6955 20.3991C60.6955 19.9163 60.3826 19.595 59.3331 19.595H58.5346V21.2306Z" fill="white"/>
<path d="M64.8945 18.5407H69.3109C71.5501 18.5407 72.3177 19.327 72.3177 20.2037C72.3177 21.1338 71.6593 21.5891 70.4387 21.7586V21.7764C72.1139 21.9104 72.2085 22.5094 72.2394 23.3668C72.2867 24.6278 72.3649 24.7521 72.7414 24.8425V24.9233H69.9074C69.7037 24.7085 69.6255 24.3517 69.6255 23.6267C69.6255 22.5175 69.3598 22.285 68.5287 22.285H67.5264V24.9216H64.8962V18.5391L64.8945 18.5407ZM67.5248 21.2306H68.3396C69.4038 21.2306 69.6857 20.7753 69.6857 20.3991C69.6857 19.9163 69.3728 19.595 68.3233 19.595H67.5248V21.2306Z" fill="white"/>
<path d="M77.5636 25.0491C74.1022 25.0491 73.6328 23.7623 73.6328 21.7327C73.6328 19.7031 74.1022 18.4163 77.5636 18.4163C81.2906 18.4163 81.4943 19.9631 81.4943 21.7327C81.4943 23.5023 81.2906 25.0491 77.5636 25.0491ZM77.5489 24.048C78.6131 24.048 78.7695 23.4845 78.7695 21.7327C78.7695 19.9808 78.6131 19.4173 77.5489 19.4173C76.4847 19.4173 76.3592 19.9808 76.3592 21.7327C76.3592 23.4845 76.5157 24.048 77.5489 24.048Z" fill="white"/>
<path d="M82.8727 18.5407H87.2891C89.5283 18.5407 90.2958 19.327 90.2958 20.2037C90.2958 21.1338 89.6391 21.5891 88.4168 21.7586V21.7764C90.0938 21.9104 90.1867 22.5094 90.2176 23.3668C90.2649 24.6278 90.3431 24.7521 90.7179 24.8425V24.9233H87.8839C87.6802 24.7085 87.602 24.3517 87.602 23.6267C87.602 22.5175 87.3364 22.285 86.5053 22.285H85.503V24.9216H82.8711V18.5391L82.8727 18.5407ZM85.5046 21.2306H86.3195C87.3836 21.2306 87.6656 20.7753 87.6656 20.3991C87.6656 19.9163 87.3527 19.595 86.3032 19.595H85.5046V21.2306Z" fill="white"/>
<path d="M41.9553 25.9485L41.3067 21.8021H41.2758V25.9485H38.9258V18.5293H42.7783L43.8311 25.9485H41.9553ZM46.8818 25.9485V21.8021H46.8508L46.2365 25.9485H44.5025L45.5194 18.5293H49.3247V25.9485H46.8818Z" fill="white"/>
<path d="M38.9258 25.9485H41.2758V33.3208H38.9258V25.9485ZM43.1075 33.3208L41.9553 25.9485H43.8311L44.157 28.2461H44.188L44.5025 25.9485H46.2365L45.143 33.3208H43.1075ZM46.8818 25.9485H49.3247V33.3208H46.8818V25.9485Z" fill="white"/>
</svg>
