<svg width="20" height="20" viewBox="0 0 20 20" fill="none" xmlns="http://www.w3.org/2000/svg">
<path d="M8.32031 14.1797L15.8203 6.67969L14.6484 5.46875L8.32031 11.7969L5.35156 8.82812L4.17969 10L8.32031 14.1797ZM15.8203 2.5C16.2891 2.5 16.6797 2.66927 16.9922 3.00781C17.3307 3.32031 17.5 3.71094 17.5 4.17969V15.8203C17.5 16.2891 17.3307 16.6927 16.9922 17.0312C16.6797 17.3438 16.2891 17.5 15.8203 17.5H4.17969C3.71094 17.5 3.30729 17.3438 2.96875 17.0312C2.65625 16.6927 2.5 16.2891 2.5 15.8203V4.17969C2.5 3.71094 2.65625 3.32031 2.96875 3.00781C3.30729 2.66927 3.71094 2.5 4.17969 2.5H15.8203Z" fill="#054F77"/>
</svg>
