<svg width="24" height="24" viewBox="0 0 24 24" fill="none" xmlns="http://www.w3.org/2000/svg">
<path d="M10.5645 18.1006C10.2956 18.1006 10.0586 17.9684 9.85352 17.7041L6.30566 13.1855C6.2373 13.1035 6.18717 13.0215 6.15527 12.9395C6.12337 12.8529 6.10742 12.7686 6.10742 12.6865C6.10742 12.4997 6.16895 12.347 6.29199 12.2285C6.41504 12.1055 6.57227 12.0439 6.76367 12.0439C6.99154 12.0439 7.1875 12.1556 7.35156 12.3789L10.5371 16.5488L16.6758 6.7666C16.7578 6.639 16.8421 6.55013 16.9287 6.5C17.0153 6.44531 17.127 6.41797 17.2637 6.41797C17.4505 6.41797 17.6009 6.47493 17.7148 6.58887C17.8288 6.7028 17.8857 6.85319 17.8857 7.04004C17.8857 7.12207 17.8721 7.2041 17.8447 7.28613C17.8174 7.36361 17.7741 7.4502 17.7148 7.5459L11.2549 17.7178C11.0863 17.973 10.8561 18.1006 10.5645 18.1006Z" fill="#009045"/>
</svg>
