<svg width="40" height="40" viewBox="0 0 40 40" fill="none" xmlns="http://www.w3.org/2000/svg">
<path d="M20.0197 3.33985C10.8186 3.33435 3.35511 10.7889 3.34961 19.99C3.34412 29.1912 10.7986 36.6547 19.9998 36.6602C24.4203 36.6674 28.6615 34.9131 31.7853 31.7855C34.9103 28.6631 36.6673 24.4275 36.6699 20.01C36.6754 10.8088 29.2209 3.34534 20.0197 3.33985ZM20.0202 34.9935C11.7395 34.9991 5.02218 28.2909 5.01648 20.0102C5.01089 11.7295 11.7192 5.01211 19.9998 5.00651C23.9783 4.99939 27.7955 6.57797 30.6069 9.39291C33.4193 12.2027 35.0008 16.0143 35.0035 19.9898C35.0092 28.2705 28.3009 34.9878 20.0202 34.9935ZM21.1781 20L26.4808 14.6973C26.7984 14.3733 26.7984 13.8548 26.4808 13.5308C26.1588 13.2021 25.6312 13.1968 25.3025 13.5189L19.9998 18.8216L14.6971 13.519C14.3731 13.2015 13.8546 13.2015 13.5306 13.519C13.2019 13.841 13.1966 14.3686 13.5187 14.6973L18.8214 20L13.5187 25.3027C13.3624 25.459 13.2747 25.6709 13.2746 25.8918C13.2746 26.352 13.6477 26.7252 14.1079 26.7253C14.3289 26.7256 14.541 26.6377 14.6971 26.4811L19.9998 21.1784L25.3025 26.4811C25.4586 26.6377 25.6707 26.7256 25.8917 26.7253C26.1127 26.7252 26.3245 26.6375 26.4807 26.4813C26.8062 26.1559 26.8062 25.6283 26.4808 25.3027L21.1781 20Z" fill="#474747"/>
</svg>
