<svg width="16" height="16" viewBox="0 0 16 16" fill="none" xmlns="http://www.w3.org/2000/svg">
<path d="M8 0C3.58874 0 0 3.58945 0 8.00045C0 12.4115 3.58874 16 8 16C12.4113 16 16 12.4115 16 8.00045C16 3.58945 12.4113 0.000907801 8 0ZM8 15.6069C3.80572 15.6069 0.3931 12.1945 0.3931 7.99955C0.3931 3.8055 3.80572 0.39217 8 0.39217C10.0281 0.39217 11.9383 1.18468 13.3763 2.62355C14.8143 4.0615 15.6069 5.97152 15.6069 7.99955C15.6069 12.1945 12.1952 15.6069 8 15.6069Z" fill="black"/>
<path d="M11.3581 4.64158C11.2819 4.56532 11.1575 4.56441 11.0803 4.64158L7.99999 7.72266L4.91965 4.64249C4.84248 4.56532 4.7181 4.56532 4.64184 4.64249C4.56467 4.71965 4.56467 4.84402 4.64184 4.92027L7.72309 8.00135L4.64093 11.0815C4.56468 11.1578 4.56468 11.2821 4.64093 11.3593C4.67906 11.3974 4.729 11.4165 4.77984 11.4165C4.83068 11.4165 4.88061 11.3974 4.91874 11.3584L7.99999 8.27823L11.0803 11.3593C11.1185 11.3974 11.1693 11.4174 11.2192 11.4174C11.2692 11.4174 11.32 11.3983 11.3581 11.3602C11.4353 11.2831 11.4353 11.1587 11.3581 11.0824L8.27689 8.00135L11.3581 4.92027C11.4344 4.84311 11.4344 4.71874 11.3581 4.64158Z" fill="black"/>
</svg>
