<svg width="27" height="32" viewBox="0 0 27 32" fill="none" xmlns="http://www.w3.org/2000/svg">
<path d="M20.2636 7.75299C20.2636 11.6937 17.1609 14.8883 13.3336 14.8883C9.50627 14.8883 6.40356 11.6937 6.40356 7.75299C6.40356 3.8123 9.50627 0.617676 13.3336 0.617676C17.1609 0.617676 20.2636 3.8123 20.2636 7.75299Z" fill="black" fill-opacity="0.87"/>
<path d="M18.9807 16.6322H7.6868C5.68479 16.6322 3.88801 17.5308 2.60479 18.8521C1.32157 20.1733 0.5 22.1292 0.5 24.1374V30.4799C0.5 31.0614 0.962001 31.4312 1.52679 31.4312H25.1399C25.7047 31.4312 26.1667 31.1141 26.1667 30.4799V24.1374C26.1667 20.0678 22.9327 16.6322 18.9802 16.6322H18.9807Z" fill="black" fill-opacity="0.87"/>
</svg>
