<svg width="17" height="17" viewBox="0 0 17 17" fill="none" xmlns="http://www.w3.org/2000/svg">
<path fill-rule="evenodd" clip-rule="evenodd" d="M12.8914 1.22299C12.0533 0.652278 11.1044 0.231714 10.0833 0V1.88833C10.6097 2.04496 11.1078 2.26745 11.5681 2.54624L12.8914 1.22299ZM10.0833 7.80228L11.8536 6.03201C12.1856 6.62511 12.375 7.30893 12.375 8.03917C12.375 9.66167 11.44 11.055 10.0833 11.7242V7.80228ZM8.25 5.86438V0.705833L3.66667 5.28917H0V10.7892H3.32522L8.25 5.86438ZM5.38156 12.5041L8.25 9.63562V15.3725L5.38156 12.5041ZM13.5147 4.37087L14.8258 3.05978C15.8767 4.44307 16.5 6.16815 16.5 8.03917C16.5 11.9625 13.7592 15.2442 10.0833 16.0783V14.19C12.7325 13.4017 14.6667 10.945 14.6667 8.03917C14.6667 6.67548 14.2407 5.41071 13.5147 4.37087Z" fill="white"/>
<path d="M14.8976 0.350966C15.0944 0.157256 15.4109 0.159764 15.6046 0.356567V0.356567C15.7984 0.553369 15.7958 0.869942 15.599 1.06365L2.05802 14.3918C1.86122 14.5856 1.54465 14.583 1.35094 14.3862V14.3862C1.15723 14.1894 1.15974 13.8729 1.35654 13.6792L14.8976 0.350966Z" fill="white"/>
</svg>
