<svg width="40" height="40" viewBox="0 0 40 40" fill="none" xmlns="http://www.w3.org/2000/svg">
<path d="M20 0C8.97201 0 0 8.97201 0 20C0 31.028 8.97201 40 20 40C31.028 40 40 31.028 40 20C40 8.97201 31.028 0 20 0ZM20 38.095C10.022 38.095 1.90501 29.978 1.90501 20C1.90501 10.022 10.022 1.90501 20 1.90501C29.978 1.90501 38.095 10.022 38.095 20C38.095 29.978 29.978 38.095 20 38.095Z" fill="white"/>
<path d="M14 12C14 11.4477 14.4477 11 15 11C15.5523 11 16 11.4477 16 12V28C16 28.5523 15.5523 29 15 29C14.4477 29 14 28.5523 14 28V12Z" fill="white"/>
<path d="M24 12C24 11.4477 24.4477 11 25 11C25.5523 11 26 11.4477 26 12V28C26 28.5523 25.5523 29 25 29C24.4477 29 24 28.5523 24 28V12Z" fill="white"/>
</svg>
