<svg width="40" height="40" viewBox="0 0 40 40" fill="none" xmlns="http://www.w3.org/2000/svg">
<g id="Frame 894">
<path id="Vector" d="M20 0C8.97201 0 0 8.97201 0 20C0 31.028 8.97201 40 20 40C31.028 40 40 31.028 40 20C40 8.97201 31.028 0 20 0ZM20 38.095C10.022 38.095 1.90501 29.978 1.90501 20C1.90501 10.022 10.022 1.90501 20 1.90501C29.978 1.90501 38.095 10.022 38.095 20C38.095 29.978 29.978 38.095 20 38.095ZM29.2543 19.1752L15.508 11.2389C15.2133 11.0687 14.8505 11.0687 14.5557 11.2389C14.261 11.409 14.0794 11.7234 14.0794 12.0636V27.9364C14.0794 28.2766 14.261 28.591 14.5557 28.7611C14.7029 28.8464 14.8672 28.8886 15.0321 28.8886C15.1965 28.8886 15.3609 28.846 15.5085 28.7611L29.2548 20.8248C29.5495 20.6547 29.7311 20.3403 29.7311 20C29.7311 19.6597 29.549 19.3453 29.2543 19.1752ZM15.9839 26.2868V13.7132L26.8734 20L15.9839 26.2868Z" fill="white"/>
</g>
</svg>
