<svg width="20" height="20" viewBox="0 0 20 20" fill="none" xmlns="http://www.w3.org/2000/svg">
<path d="M5.27344 14.7266C6.60156 16.0286 8.17708 16.6797 10 16.6797C11.8229 16.6797 13.3854 16.0286 14.6875 14.7266C16.0156 13.3984 16.6797 11.8229 16.6797 10C16.6797 8.17708 16.0156 6.61458 14.6875 5.3125C13.3854 3.98438 11.8229 3.32031 10 3.32031C8.17708 3.32031 6.60156 3.98438 5.27344 5.3125C3.97135 6.61458 3.32031 8.17708 3.32031 10C3.32031 11.8229 3.97135 13.3984 5.27344 14.7266ZM4.10156 4.14062C5.74219 2.5 7.70833 1.67969 10 1.67969C12.2917 1.67969 14.2448 2.5 15.8594 4.14062C17.5 5.75521 18.3203 7.70833 18.3203 10C18.3203 12.2917 17.5 14.2578 15.8594 15.8984C14.2448 17.513 12.2917 18.3203 10 18.3203C7.70833 18.3203 5.74219 17.513 4.10156 15.8984C2.48698 14.2578 1.67969 12.2917 1.67969 10C1.67969 7.70833 2.48698 5.75521 4.10156 4.14062ZM7.03125 7.07031C7.86458 6.23698 8.85417 5.82031 10 5.82031C11.1458 5.82031 12.1224 6.23698 12.9297 7.07031C13.763 7.8776 14.1797 8.85417 14.1797 10C14.1797 11.1458 13.763 12.1354 12.9297 12.9688C12.1224 13.776 11.1458 14.1797 10 14.1797C8.85417 14.1797 7.86458 13.776 7.03125 12.9688C6.22396 12.1354 5.82031 11.1458 5.82031 10C5.82031 8.85417 6.22396 7.8776 7.03125 7.07031Z" fill="#054F77"/>
</svg>
