<svg width="40" height="40" viewBox="0 0 40 40" fill="none" xmlns="http://www.w3.org/2000/svg">
<circle cx="20" cy="20" r="20" fill="#07B53B"/>
<path d="M29.5106 24.8188C31.2847 22.8969 32.0978 20.975 32.0978 18.8313C32.0978 13.4352 26.7017 9 20.0489 9C13.3961 9 8 13.4352 8 18.8313C8 23.6361 12.2873 27.7017 18.0531 28.4409C19.4575 28.7365 19.3097 29.254 19.014 31.1759C18.9401 31.4716 18.7183 32.3586 20.0489 31.8412C21.3055 31.3237 26.9973 27.7756 29.5106 24.8188Z" fill="white"/>
<path d="M23.3755 16.2441C23.5233 16.1702 23.6712 16.318 23.6712 16.4658V21.7141C23.6712 21.862 23.5233 21.9359 23.3755 21.9359H22.5624C22.4885 21.9359 22.4146 21.862 22.3406 21.862L19.9752 18.6095V21.7141C19.9752 21.862 19.8274 21.9359 19.7534 21.9359H18.8664C18.7186 21.9359 18.6447 21.862 18.6447 21.7141V16.4658C18.6447 16.318 18.7186 16.2441 18.8664 16.2441H19.7534C19.8274 16.2441 19.9013 16.2441 19.9013 16.318L22.3406 19.5705V16.4658C22.3406 16.318 22.4146 16.2441 22.5624 16.2441H23.3755Z" fill="#07B53B"/>
<path d="M16.7227 16.1702H17.6098C17.6837 16.1702 17.8315 16.318 17.8315 16.4658V21.7141C17.8315 21.862 17.6837 21.9359 17.6098 21.9359H16.7227C16.5749 21.9359 16.501 21.862 16.501 21.7141V16.4658C16.501 16.318 16.5749 16.1702 16.7227 16.1702Z" fill="#07B53B"/>
<path d="M13.2485 20.6053H15.54C15.6879 20.6053 15.7618 20.7532 15.7618 20.8271V21.7141C15.7618 21.7881 15.6879 21.9359 15.54 21.9359H12.1397C12.0658 21.9359 12.0658 21.862 11.9919 21.862C11.9919 21.7881 11.918 21.7881 11.918 21.7141V16.4658C11.918 16.318 12.0658 16.1702 12.1397 16.1702H13.0268C13.1746 16.1702 13.2485 16.318 13.2485 16.4658V20.6053Z" fill="#07B53B"/>
<path d="M24.7061 16.1702H28.1064C28.1803 16.1702 28.3281 16.318 28.3281 16.4658V17.279C28.3281 17.4268 28.1803 17.5007 28.1064 17.5007H25.8149V18.3878H28.1064C28.1803 18.3878 28.3281 18.5356 28.3281 18.6095V19.4965C28.3281 19.6444 28.1803 19.7183 28.1064 19.7183H25.8149V20.6053H28.1064C28.1803 20.6053 28.3281 20.7532 28.3281 20.8271V21.7141C28.3281 21.862 28.1803 21.9359 28.1064 21.9359H24.7061C24.5582 21.9359 24.4843 21.7881 24.4843 21.7141V16.4658C24.4843 16.318 24.5582 16.1702 24.7061 16.1702Z" fill="#07B53B"/>
</svg>
