<svg width="21" height="20" viewBox="0 0 21 20" fill="none" xmlns="http://www.w3.org/2000/svg">
<g id="Group 9">
<rect id="Rectangle 53" x="0.5" width="20" height="20" fill="white"/>
<path id="&#239;&#163;&#191;" d="M10.2099 4.38461C11.0675 4.38461 12.1426 3.80483 12.7827 3.03179C13.3625 2.33121 13.7853 1.35283 13.7853 0.374444C13.7853 0.241577 13.7732 0.108709 13.749 0C12.7948 0.0362365 11.6473 0.640178 10.9588 1.44946C10.4153 2.06548 9.92006 3.03179 9.92006 4.02225C9.92006 4.1672 9.94422 4.31214 9.95629 4.36046C10.0167 4.37254 10.1133 4.38461 10.2099 4.38461ZM7.19024 19C8.36189 19 8.88128 18.2149 10.3428 18.2149C11.8285 18.2149 12.1546 18.9758 13.4592 18.9758C14.7395 18.9758 15.5971 17.7921 16.4064 16.6325C17.3123 15.3039 17.6867 13.9994 17.7109 13.939C17.6264 13.9148 15.1743 12.9123 15.1743 10.0979C15.1743 7.65798 17.107 6.5588 17.2157 6.47425C15.9353 4.63827 13.9906 4.58996 13.4592 4.58996C12.0218 4.58996 10.8501 5.45963 10.1133 5.45963C9.31612 5.45963 8.26526 4.63827 7.02114 4.63827C4.65369 4.63827 2.25 6.59504 2.25 10.2912C2.25 12.5861 3.14383 15.014 4.24301 16.5842C5.18516 17.9129 6.00652 19 7.19024 19Z" fill="black"/>
</g>
</svg>
