<svg width="24" height="24" viewBox="0 0 24 24" fill="none" xmlns="http://www.w3.org/2000/svg">
<path d="M12 17.9961C11.0234 17.9961 10.0981 17.8765 9.22412 17.6372C8.35498 17.4028 7.54688 17.0928 6.7998 16.707C6.05762 16.3164 5.39111 15.8867 4.80029 15.418C4.20947 14.9492 3.7041 14.4805 3.28418 14.0117C2.86426 13.5381 2.54199 13.1011 2.31738 12.7007C2.09766 12.2954 1.98779 11.9683 1.98779 11.7192C1.98779 11.4995 2.07568 11.2188 2.25146 10.877C2.42725 10.5303 2.68115 10.1519 3.01318 9.7417C3.3501 9.33154 3.75781 8.9165 4.23633 8.49658C4.71973 8.07178 5.2666 7.67139 5.87695 7.29541L6.78516 8.20361C6.24316 8.52588 5.75488 8.86523 5.32031 9.22168C4.89062 9.57812 4.52197 9.92236 4.21436 10.2544C3.91162 10.5864 3.67725 10.8818 3.51123 11.1406C3.3501 11.3994 3.26953 11.5923 3.26953 11.7192C3.26953 11.8901 3.37207 12.1343 3.57715 12.4517C3.78223 12.769 4.0752 13.1206 4.45605 13.5063C4.8418 13.8872 5.29834 14.2729 5.82568 14.6636C6.35303 15.0542 6.94141 15.4155 7.59082 15.7476C8.24023 16.0747 8.93604 16.3384 9.67822 16.5386C10.4204 16.7388 11.1943 16.8389 12 16.8389C12.4932 16.8389 12.9717 16.7998 13.4355 16.7217C13.8994 16.6436 14.3486 16.5386 14.7832 16.4067L15.7427 17.3662C15.1763 17.5615 14.5806 17.7153 13.9556 17.8276C13.3306 17.9399 12.6787 17.9961 12 17.9961ZM12 5.44238C12.9863 5.44238 13.9165 5.56201 14.7905 5.80127C15.6694 6.03564 16.48 6.34814 17.2222 6.73877C17.9644 7.12451 18.6284 7.55176 19.2144 8.02051C19.8052 8.48926 20.3081 8.96045 20.7231 9.43408C21.1382 9.90283 21.4556 10.3398 21.6753 10.7451C21.895 11.1455 22.0049 11.4702 22.0049 11.7192C22.0049 11.9341 21.9194 12.21 21.7485 12.5469C21.5825 12.8838 21.3408 13.2524 21.0234 13.6528C20.7061 14.0483 20.3179 14.4536 19.8589 14.8687C19.4048 15.2837 18.8896 15.6792 18.3135 16.0552L17.4126 15.1543C17.9204 14.8418 18.377 14.5171 18.7822 14.1802C19.1875 13.8433 19.5342 13.5161 19.8223 13.1987C20.1152 12.8765 20.3374 12.5884 20.4888 12.3345C20.645 12.0757 20.7231 11.8706 20.7231 11.7192C20.7231 11.5728 20.6182 11.3481 20.4082 11.0454C20.2031 10.7427 19.9102 10.3984 19.5293 10.0127C19.1484 9.62207 18.6943 9.229 18.167 8.8335C17.6396 8.43799 17.0513 8.07178 16.4019 7.73486C15.7524 7.39307 15.0566 7.11963 14.3145 6.91455C13.5723 6.70459 12.8008 6.59961 12 6.59961C11.5459 6.59961 11.1089 6.63379 10.689 6.70215C10.2739 6.77051 9.86377 6.86328 9.4585 6.98047L8.4917 6.021C9.03369 5.84033 9.59277 5.69873 10.1689 5.59619C10.75 5.49365 11.3604 5.44238 12 5.44238ZM12 15.8208C11.4238 15.8208 10.8867 15.7134 10.3887 15.4985C9.89062 15.2837 9.45361 14.9883 9.07764 14.6123C8.70166 14.2314 8.40869 13.7944 8.19873 13.3013C7.98877 12.8032 7.88135 12.2759 7.87646 11.7192C7.87646 11.3921 7.91309 11.0771 7.98633 10.7744C8.05957 10.4668 8.16455 10.1763 8.30127 9.90283L13.7944 15.396C13.521 15.5278 13.2329 15.6328 12.9302 15.7109C12.6323 15.7842 12.3223 15.8208 12 15.8208ZM15.7573 13.3232L10.3887 7.95459C10.6328 7.84717 10.8892 7.76416 11.1577 7.70557C11.4312 7.64697 11.7119 7.61768 12 7.61768C12.5664 7.61768 13.0986 7.72266 13.5967 7.93262C14.0947 8.14258 14.5317 8.43555 14.9077 8.81152C15.2837 9.18262 15.5767 9.61719 15.7866 10.1152C16.0015 10.6133 16.1089 11.1479 16.1089 11.7192C16.1089 12.0024 16.0771 12.2808 16.0137 12.5542C15.9551 12.8228 15.8696 13.0791 15.7573 13.3232ZM17.6982 18.062L5.44482 5.82324C5.3374 5.71582 5.28369 5.58398 5.28369 5.42773C5.28369 5.2666 5.3374 5.13232 5.44482 5.0249C5.55713 4.9126 5.69141 4.85889 5.84766 4.86377C6.00879 4.86377 6.14307 4.91748 6.25049 5.0249L18.4966 17.2637C18.6089 17.376 18.6675 17.5054 18.6724 17.6519C18.6772 17.8032 18.6187 17.9399 18.4966 18.062C18.3843 18.1841 18.25 18.2427 18.0938 18.2378C17.9424 18.2329 17.8105 18.1743 17.6982 18.062Z" fill="#054F77"/>
</svg>
