<svg width="21" height="20" viewBox="0 0 21 20" fill="none" xmlns="http://www.w3.org/2000/svg">
<g id="layer1">
<g id="g4670">
<g id="g4672">
<g id="g4678">
<path id="path4680" d="M19.3369 19.9336C19.9423 19.9336 20.4333 19.4426 20.4333 18.8371V1.16331C20.4333 0.557613 19.9423 0.0667763 19.3369 0.0667763H1.6631C1.05741 0.0667763 0.56665 0.557613 0.56665 1.16331V18.8371C0.56665 19.4426 1.05741 19.9336 1.6631 19.9336H19.3369Z" fill="#3B5998"/>
</g>
<g id="g4682">
<path id="path4684" d="M14.2743 19.9336V12.2402H16.8567L17.2434 9.24186H14.2743V7.32757C14.2743 6.45949 14.5153 5.86794 15.7602 5.86794L17.3479 5.86719V3.18553C17.0733 3.14906 16.1308 3.0674 15.0344 3.0674C12.7452 3.0674 11.1781 4.46465 11.1781 7.03071V9.24186H8.58911V12.2402H11.1781V19.9336H14.2743Z" fill="white"/>
</g>
</g>
</g>
</g>
</svg>
