<svg width="21" height="20" viewBox="0 0 21 20" fill="none" xmlns="http://www.w3.org/2000/svg">
<g id="Icon">
<path id="Shape" fill-rule="evenodd" clip-rule="evenodd" d="M10.5001 3.86667C12.3779 3.86667 13.6445 4.67778 14.3668 5.35556L17.189 2.6C15.4557 0.988889 13.2001 0 10.5001 0C6.58899 0 3.21122 2.24444 1.56677 5.51111L4.80011 8.02222C5.61122 5.61111 7.85566 3.86667 10.5001 3.86667Z" fill="#EA4335"/>
<path id="Shape_2" fill-rule="evenodd" clip-rule="evenodd" d="M20.1 10.2222C20.1 9.39996 20.0333 8.79996 19.8889 8.17773H10.5V11.8888H16.0111C15.9 12.8111 15.3 14.2 13.9667 15.1333L17.1222 17.5777C19.0111 15.8333 20.1 13.2666 20.1 10.2222Z" fill="#4285F4"/>
<path id="Shape_3" fill-rule="evenodd" clip-rule="evenodd" d="M4.81111 11.9779C4.6 11.3557 4.47778 10.689 4.47778 10.0001C4.47778 9.31123 4.6 8.64456 4.8 8.02234L1.56667 5.51123C0.888889 6.86679 0.5 8.38901 0.5 10.0001C0.5 11.6112 0.888889 13.1335 1.56667 14.489L4.81111 11.9779Z" fill="#FBBC05"/>
<path id="Shape_4" fill-rule="evenodd" clip-rule="evenodd" d="M10.5 19.9998C13.2 19.9998 15.4667 19.1109 17.1223 17.5775L13.9667 15.1331C13.1223 15.722 11.9889 16.1331 10.5 16.1331C7.8556 16.1331 5.61115 14.3887 4.81115 11.9775L1.57782 14.4887C3.22226 17.7553 6.58893 19.9998 10.5 19.9998Z" fill="#34A853"/>
</g>
</svg>
