<svg width="24" height="24" viewBox="0 0 24 24" fill="none" xmlns="http://www.w3.org/2000/svg">
<path d="M12 17.9448C11.0332 17.9448 10.1177 17.8276 9.25342 17.5933C8.38916 17.3589 7.58838 17.0488 6.85107 16.6631C6.11377 16.2773 5.44971 15.8525 4.85889 15.3887C4.27295 14.9248 3.77002 14.4585 3.3501 13.9897C2.93506 13.521 2.61768 13.0889 2.39795 12.6934C2.17822 12.293 2.06836 11.9683 2.06836 11.7192C2.06836 11.4702 2.17822 11.1479 2.39795 10.7524C2.61768 10.3521 2.93506 9.91748 3.3501 9.44873C3.77002 8.97998 4.27295 8.51367 4.85889 8.0498C5.44971 7.58594 6.11377 7.16113 6.85107 6.77539C7.58838 6.38965 8.38916 6.07959 9.25342 5.84521C10.1177 5.61084 11.0332 5.49365 12 5.49365C12.9766 5.49365 13.897 5.61084 14.7612 5.84521C15.6304 6.07959 16.4336 6.38965 17.1709 6.77539C17.9082 7.16113 18.5698 7.58594 19.1558 8.0498C19.7417 8.51367 20.2397 8.97998 20.6499 9.44873C21.0649 9.91748 21.3799 10.3521 21.5947 10.7524C21.8145 11.1479 21.9243 11.4702 21.9243 11.7192C21.9243 11.9683 21.8145 12.293 21.5947 12.6934C21.3799 13.0889 21.0649 13.521 20.6499 13.9897C20.2397 14.4585 19.7417 14.9248 19.1558 15.3887C18.5747 15.8525 17.9155 16.2773 17.1782 16.6631C16.4409 17.0488 15.6377 17.3589 14.7686 17.5933C13.8994 17.8276 12.9766 17.9448 12 17.9448ZM12 15.7988C12.5664 15.7988 13.0962 15.6938 13.5894 15.4839C14.0874 15.269 14.522 14.9736 14.8931 14.5977C15.269 14.2168 15.562 13.7822 15.772 13.2939C15.9868 12.8008 16.0942 12.2759 16.0942 11.7192C16.0942 11.1479 15.9868 10.6157 15.772 10.1226C15.562 9.62939 15.269 9.19727 14.8931 8.82617C14.522 8.4502 14.0874 8.15967 13.5894 7.95459C13.0962 7.74463 12.5664 7.63965 12 7.63965C11.4287 7.63965 10.894 7.74463 10.396 7.95459C9.89795 8.15967 9.46094 8.4502 9.08496 8.82617C8.71387 9.19727 8.4209 9.62939 8.20605 10.1226C7.99609 10.6157 7.89355 11.1479 7.89844 11.7192C7.90332 12.2759 8.01074 12.8008 8.2207 13.2939C8.43066 13.7822 8.72119 14.2168 9.09229 14.5977C9.46826 14.9736 9.90283 15.269 10.396 15.4839C10.894 15.6938 11.4287 15.7988 12 15.7988ZM12 13.1914C11.5898 13.1914 11.2383 13.0474 10.9453 12.7593C10.6523 12.4663 10.5059 12.1196 10.5059 11.7192C10.5059 11.314 10.6523 10.9673 10.9453 10.6792C11.2383 10.3862 11.5898 10.2397 12 10.2397C12.4053 10.2397 12.7544 10.3862 13.0474 10.6792C13.3403 10.9673 13.4868 11.314 13.4868 11.7192C13.4868 12.1196 13.3403 12.4663 13.0474 12.7593C12.7544 13.0474 12.4053 13.1914 12 13.1914Z" fill="#054F77"/>
</svg>
